<svg viewBox="0 -33 512 512" xmlns="http://www.w3.org/2000/svg"><path d="M512 10.3v425.5c0 5.7-4.6 10.3-10.3 10.3H10.3c-5.7 0-10.3-4.6-10.3-10.3V10.3C0 4.6 4.6 0 10.3 0h491.4c5.7 0 10.3 4.6 10.3 10.3zm0 0" fill="#e3f4ff"/><path d="M512 10.3v425.5c0 5.7-4.6 10.3-10.3 10.3h-30.6c5.7 0 10.3-4.6 10.3-10.3V10.3c0-5.7-4.6-10.3-10.3-10.3h30.6c5.7 0 10.3 4.6 10.3 10.3zm0 0" fill="#bddff4"/><path d="M512 10.3v55.2H0V10.3C0 4.6 4.6 0 10.3 0h491.4c5.7 0 10.3 4.6 10.3 10.3zm0 0" fill="#618baa"/><path d="M512 10.3v55.2h-30.6V10.3c0-5.7-4.6-10.3-10.3-10.3h30.6c5.7 0 10.3 4.6 10.3 10.3zm0 0" fill="#4e7693"/><path d="M150.3 0v65.5H0V10.3C0 4.6 4.6 0 10.3 0zm0 0" fill="#fd6096"/><path d="M47.9 40.4h-.2a7.7 7.7 0 010-15.5h.2a7.7 7.7 0 010 15.5zm0 0M76.2 40.5a7.7 7.7 0 010-15.5 7.7 7.7 0 110 15.5zm0 0M104.6 40.6h-.2a7.7 7.7 0 010-15.5h.2a7.7 7.7 0 010 15.5zm0 0" fill="#fc3e81"/><g fill="#93c0d1"><path d="M212.4 112.3H50.7a7.7 7.7 0 110-15.4h161.7a7.7 7.7 0 010 15.4zm0 0M304.8 112.3H282a7.7 7.7 0 110-15.4h22.7a7.7 7.7 0 110 15.4zm0 0M357 112.3h-22.7a7.7 7.7 0 010-15.4H357a7.7 7.7 0 110 15.4zm0 0M409.2 112.3h-22.7a7.7 7.7 0 010-15.4h22.7a7.7 7.7 0 110 15.4zm0 0M461.3 112.3h-22.6a7.7 7.7 0 010-15.4h22.6a7.7 7.7 0 110 15.4zm0 0"/></g><path d="M193.2 317.1H69.8c-5.7 0-10.3-4.6-10.3-10.3V183.4c0-5.7 4.6-10.3 10.3-10.3h123.4c5.7 0 10.3 4.6 10.3 10.3v123.4c0 5.7-4.6 10.3-10.3 10.3zm0 0" fill="#32dfb7"/><path d="M111.3 226.6l3.6-3.5a7.7 7.7 0 00-11-11l-3.5 3.6-3.6-3.5A7.7 7.7 0 0086 223l3.6 3.5-3.6 3.6a7.7 7.7 0 0011 11l3.5-3.6 3.5 3.5a7.7 7.7 0 0011 0c3-3 3-7.9 0-10.9zm0 0M173.6 226.6l3.5-3.5a7.7 7.7 0 00-10.9-11l-3.5 3.6-3.6-3.5a7.7 7.7 0 00-11 10.9l3.6 3.5-3.5 3.6a7.7 7.7 0 0011 11l3.5-3.6 3.5 3.5a7.7 7.7 0 0011 0c3-3 3-7.9 0-10.9zm0 0" fill="#21c69c"/><path d="M171.7 268.2v43.4a14.3 14.3 0 11-28.5 0v-43.4" fill="#fd6096"/><path d="M171.7 276H91.4a7.7 7.7 0 110-15.5h80.3a7.7 7.7 0 110 15.4zm0 0" fill="#21c69c"/><path d="M304.8 232.3a7.7 7.7 0 00-7.8 7.7v12.8h-19.4a2.6 2.6 0 01-2.5-2.5v-72.8a7.7 7.7 0 10-15.5 0v72.8c0 10 8.1 18 18 18H297v53.2a7.7 7.7 0 0015.5 0V240c0-4.2-3.5-7.7-7.7-7.7zm0 0M427.9 232.3a7.7 7.7 0 00-7.8 7.7v12.8h-19.4a2.6 2.6 0 01-2.5-2.5v-72.8a7.7 7.7 0 10-15.5 0v72.8c0 10 8.1 18 18 18h19.4v53.2a7.7 7.7 0 0015.5 0V240c0-4.2-3.5-7.7-7.7-7.7zm0 0M356 329.2h-16.8c-10 0-18-8-18-18V187.8c0-10 8-18 18-18H356c10 0 18 8 18 18v123.4c0 10-8 18-18 18zm-16.8-144a2.6 2.6 0 00-2.6 2.6v123.4c0 1.4 1.2 2.6 2.6 2.6H356c1.4 0 2.6-1.2 2.6-2.6V187.8c0-1.5-1.2-2.6-2.6-2.6zm0 0" fill="#749db7"/><path d="M327.8 383H184.2a7.7 7.7 0 110-15.5h143.6a7.7 7.7 0 110 15.4zm0 0M287.3 405.6h-62.5a7.7 7.7 0 110-15.5h62.4a7.7 7.7 0 110 15.5zm0 0" fill="#93c0d1"/></svg>