<svg xmlns="http://www.w3.org/2000/svg" viewBox="0 0 512 512"><path d="M476.8 35.2a120 120 0 00-169.7 0l-92.4 92.4a119.7 119.7 0 00-30.4 118.2 118 118 0 0030.4 51.5 118 118 0 0051.5 30.4 119.7 119.7 0 00118.2-30.3l92.4-92.5a120 120 0 000-169.7zM342 254.9A59.9 59.9 0 11257 170l92.5-92.4c23.3-23.3 61.5-23.3 84.8 0s23.3 61.5 0 84.8L342 255z" fill="#ff9f00"/><path d="M476.8 204.9l-92.4 92.4a119.7 119.7 0 01-118.2 30.4 118 118 0 01-51.5-30.4L257 255a59.9 59.9 0 0084.9 0l92.4-92.5a60.2 60.2 0 000-84.8l42.4-42.4a120 120 0 010 169.7z" fill="#ff7816"/><path d="M299.5 382.2L205 476.8A120 120 0 1135.2 307.1l94.6-94.6a119.7 119.7 0 0153.9-31c-5.7 21-5.5 43.3.6 64.3a50.4 50.4 0 00-12 9.1l-94.7 94.7c-23.3 23.3-23.3 61.5 0 84.8s61.5 23.3 84.8 0l94.7-94.6a59.9 59.9 0 000-84.9 59.9 59.9 0 01-9.1-72.8 118 118 0 0151.5 30.4A118 118 0 01330 264a119.7 119.7 0 01-30.3 118.2z" fill="#9ed0ff"/><path d="M299.5 382.2L205 476.8a120 120 0 01-169.7 0l42.4-42.4a60.2 60.2 0 0084.8 0l94.7-94.6a59.9 59.9 0 000-84.9l42.4-42.4A118 118 0 01330 264a119.7 119.7 0 01-30.3 118.2z" fill="#73bcff"/></svg>