<?xml version="1.0" encoding="UTF-8" standalone="no"?>
<svg
   xmlns:dc="http://purl.org/dc/elements/1.1/"
   xmlns:cc="http://creativecommons.org/ns#"
   xmlns:rdf="http://www.w3.org/1999/02/22-rdf-syntax-ns#"
   xmlns:svg="http://www.w3.org/2000/svg"
   xmlns="http://www.w3.org/2000/svg"
   xmlns:sodipodi="http://sodipodi.sourceforge.net/DTD/sodipodi-0.dtd"
   xmlns:inkscape="http://www.inkscape.org/namespaces/inkscape"
   viewBox="0 0 86.620566 100.8232"
   version="1.1"
   id="svg106"
   sodipodi:docname="tux.svg"
   width="86.620567"
   height="100.8232"
   inkscape:version="1.0.1 (3bc2e813f5, 2020-09-07)">
  <metadata
     id="metadata110">
    <rdf:RDF>
      <cc:Work
         rdf:about="">
        <dc:format>image/svg+xml</dc:format>
        <dc:type
           rdf:resource="http://purl.org/dc/dcmitype/StillImage" />
        <dc:title />
      </cc:Work>
    </rdf:RDF>
  </metadata>
  <sodipodi:namedview
     pagecolor="#ffffff"
     bordercolor="#666666"
     borderopacity="1"
     objecttolerance="10"
     gridtolerance="10"
     guidetolerance="10"
     inkscape:pageopacity="0"
     inkscape:pageshadow="2"
     inkscape:window-width="1920"
     inkscape:window-height="1009"
     id="namedview108"
     showgrid="false"
     showguides="false"
     inkscape:zoom="6.1827395"
     inkscape:cx="23.505323"
     inkscape:cy="53.056852"
     inkscape:window-x="0"
     inkscape:window-y="0"
     inkscape:window-maximized="1"
     inkscape:current-layer="svg106"
     inkscape:document-rotation="0" />
  <defs
     id="defs32">
    <filter
       height="1.15764"
       y="-0.078819998"
       width="1.14307"
       x="-0.071529999"
       id="j"
       color-interpolation-filters="sRGB">
      <feGaussianBlur
         stdDeviation="3.66537"
         id="feGaussianBlur2" />
    </filter>
    <filter
       color-interpolation-filters="sRGB"
       id="i"
       x="-0.18606"
       width="1.37212"
       y="-0.18295"
       height="1.3659">
      <feGaussianBlur
         stdDeviation=".59083"
         id="feGaussianBlur5" />
    </filter>
    <filter
       color-interpolation-filters="sRGB"
       id="h"
       x="-0.30458999"
       width="1.60919"
       y="-0.29949999"
       height="1.59901">
      <feGaussianBlur
         stdDeviation=".96723"
         id="feGaussianBlur8" />
    </filter>
    <filter
       color-interpolation-filters="sRGB"
       id="g"
       x="-0.25123999"
       width="1.50249"
       y="-0.24705"
       height="1.49409">
      <feGaussianBlur
         stdDeviation=".79782"
         id="feGaussianBlur11" />
    </filter>
    <filter
       color-interpolation-filters="sRGB"
       id="f"
       x="-0.08574"
       width="1.17147"
       y="-0.099799998"
       height="1.19959">
      <feGaussianBlur
         stdDeviation="1.58838"
         id="feGaussianBlur14" />
    </filter>
    <filter
       height="1.15764"
       y="-0.078819998"
       width="1.14307"
       x="-0.071529999"
       id="e"
       color-interpolation-filters="sRGB">
      <feGaussianBlur
         stdDeviation="3.66537"
         id="feGaussianBlur17" />
    </filter>
    <filter
       height="1.18759"
       y="-0.093790002"
       width="1.1249599"
       x="-0.062479999"
       id="d"
       color-interpolation-filters="sRGB">
      <feGaussianBlur
         stdDeviation="2.12628"
         id="feGaussianBlur20" />
    </filter>
    <filter
       color-interpolation-filters="sRGB"
       id="c"
       x="-0.12729999"
       width="1.2546099"
       y="-0.093780003"
       height="1.18756">
      <feGaussianBlur
         stdDeviation="1.41763"
         id="feGaussianBlur23" />
    </filter>
    <filter
       color-interpolation-filters="sRGB"
       id="b"
       x="-0.12729999"
       width="1.2546099"
       y="-0.093780003"
       height="1.18756">
      <feGaussianBlur
         stdDeviation="1.41763"
         id="feGaussianBlur26" />
    </filter>
    <filter
       color-interpolation-filters="sRGB"
       id="a"
       x="-0.05824"
       width="1.11647"
       y="-0.040819999"
       height="1.08165">
      <feGaussianBlur
         stdDeviation="3.93739"
         id="feGaussianBlur29" />
    </filter>
    <filter
       color-interpolation-filters="sRGB"
       id="a-3"
       x="-0.05824"
       width="1.11647"
       y="-0.040819999"
       height="1.08165">
      <feGaussianBlur
         stdDeviation="3.93739"
         id="feGaussianBlur29-6" />
    </filter>
    <filter
       color-interpolation-filters="sRGB"
       id="b-7"
       x="-0.12729999"
       width="1.2546099"
       y="-0.093780003"
       height="1.18756">
      <feGaussianBlur
         stdDeviation="1.41763"
         id="feGaussianBlur26-5" />
    </filter>
    <filter
       color-interpolation-filters="sRGB"
       id="c-3"
       x="-0.12729999"
       width="1.2546099"
       y="-0.093780003"
       height="1.18756">
      <feGaussianBlur
         stdDeviation="1.41763"
         id="feGaussianBlur23-5" />
    </filter>
    <filter
       height="1.18759"
       y="-0.093790002"
       width="1.1249599"
       x="-0.062479999"
       id="d-6"
       color-interpolation-filters="sRGB">
      <feGaussianBlur
         stdDeviation="2.12628"
         id="feGaussianBlur20-2" />
    </filter>
    <filter
       height="1.15764"
       y="-0.078819998"
       width="1.14307"
       x="-0.071529999"
       id="e-9"
       color-interpolation-filters="sRGB">
      <feGaussianBlur
         stdDeviation="3.66537"
         id="feGaussianBlur17-1" />
    </filter>
    <filter
       color-interpolation-filters="sRGB"
       id="i-2"
       x="-0.18606"
       width="1.37212"
       y="-0.18295"
       height="1.3659">
      <feGaussianBlur
         stdDeviation=".59083"
         id="feGaussianBlur5-7" />
    </filter>
    <filter
       height="1.15764"
       y="-0.078819998"
       width="1.14307"
       x="-0.071529999"
       id="j-0"
       color-interpolation-filters="sRGB">
      <feGaussianBlur
         stdDeviation="3.66537"
         id="feGaussianBlur2-9" />
    </filter>
    <filter
       inkscape:collect="always"
       style="color-interpolation-filters:sRGB"
       id="filter2043"
       x="-0.050053671"
       width="1.1001073"
       y="-0.042404789"
       height="1.0848095">
      <feGaussianBlur
         inkscape:collect="always"
         stdDeviation="0.43448336"
         id="feGaussianBlur2045" />
    </filter>
  </defs>
  <g
     id="g1780"
     transform="matrix(3.7795276,0,0,3.7795276,-365.26151,-359.85382)"
     style="filter:url(#filter2043)">
    <path
       d="m 114.67974,106.30213 c -1.45945,-1.30985 -2.07262,-3.29251 -1.77384,-5.23065 0.0421,-0.27274 0.0577,-0.55423 0.0442,-0.84173 -0.10123,-2.162577 -1.88347,-3.911147 -4.04758,-3.973869 -2.36314,-0.06847 -4.3003,1.826763 -4.3003,4.174499 0,0.35198 0.0435,0.69381 0.12551,1.02031 0.47639,1.89705 0.006,3.90324 -1.33491,5.32691 -1.34625,1.42907 -2.19785,3.34817 -2.19785,5.46202 0,4.86838 1.89459,7.21458 4.60537,7.95375 0.62367,-0.27995 1.52813,-0.45614 2.53479,-0.45614 0.95752,0 1.82221,0.15947 2.44112,0.41596 3.34481,-0.6705 4.93153,-2.29957 6.03857,-6.06084 0.88423,-3.00416 -0.4866,-6.31075 -2.13513,-7.79022 z"
       id="path34-3"
       style="fill:#ffffff;stroke-width:0.264583" />
    <path
       filter="url(#a)"
       fill="#ffffff"
       opacity="0.7"
       d="m 84.22465,242.44769 c 0,-45.34 36.32501,-150.337 81.13401,-150.337 44.809,0 81.134,105.528 81.134,150.337 0,44.809 -36.325,81.134 -81.134,81.134 -44.809,0 -81.134,-36.325 -81.134,-81.134 z"
       transform="matrix(0.07000346,0,0,0.07000346,97.069055,96.254082)"
       id="path36-6"
       style="filter:url(#a-3)" />
    <path
       fill="#ffffff"
       d="m 102.96515,113.22647 c 0,-3.17399 2.54291,-10.52424 5.67973,-10.52424 3.13682,0 5.67973,7.38742 5.67973,10.52424 0,3.13683 -2.54291,5.67973 -5.67973,5.67973 -3.13683,0 -5.67973,-2.5429 -5.67973,-5.67973 z m 4.52046,-12.1279 a 0.93546877,1.2698783 0 0 1 -0.93547,1.26988 0.93546877,1.2698783 0 0 1 -0.93547,-1.26988 0.93546877,1.2698783 0 0 1 0.93547,-1.269878 0.93546877,1.2698783 0 0 1 0.93547,1.269878"
       id="path38-0"
       style="stroke-width:0.264583" />
    <path
       filter="url(#b)"
       fill="#ffffff"
       opacity="0.7"
       d="m 148.79866,69.20269 a 13.363,18.14 0 0 1 -13.363,18.14 13.363,18.14 0 0 1 -13.363,-18.14 13.363,18.14 0 0 1 13.363,-18.14 13.363,18.14 0 0 1 13.363,18.14"
       transform="matrix(0.07000346,0,0,0.07000346,97.069055,96.254082)"
       id="path40-6"
       style="filter:url(#b-7)" />
    <path
       fill="#000100"
       d="m 107.01406,101.38699 a 0.46392042,0.82318225 0 0 1 -0.46392,0.82318 0.46392042,0.82318225 0 0 1 -0.46392,-0.82318 0.46392042,0.82318225 0 0 1 0.46392,-0.82318 0.46392042,0.82318225 0 0 1 0.46392,0.82318"
       id="path42-2"
       style="stroke-width:0.264583" />
    <path
       fill="#ffffff"
       d="m 110.81641,101.09857 a 0.93546877,1.2698783 0 0 1 -0.93547,1.26988 0.93546877,1.2698783 0 0 1 -0.93546,-1.26988 0.93546877,1.2698783 0 0 1 0.93546,-1.269878 0.93546877,1.2698783 0 0 1 0.93547,1.269878"
       id="path44-6"
       style="stroke-width:0.264583" />
    <path
       filter="url(#c)"
       fill="#ffffff"
       opacity="0.7"
       d="m 196.37865,69.20269 a 13.363,18.14 0 0 1 -13.363,18.14 13.363,18.14 0 0 1 -13.363,-18.14 13.363,18.14 0 0 1 13.363,-18.14 13.363,18.14 0 0 1 13.363,18.14"
       transform="matrix(0.07000346,0,0,0.07000346,97.069055,96.254082)"
       id="path46-1"
       style="filter:url(#c-3)" />
    <path
       fill="#000100"
       d="m 110.34486,101.38699 a 0.46392042,0.82318225 0 0 1 -0.46392,0.82318 0.46392042,0.82318225 0 0 1 -0.46392,-0.82318 0.46392042,0.82318225 0 0 1 0.46392,-0.82318 0.46392042,0.82318225 0 0 1 0.46392,0.82318"
       id="path48-8"
       style="stroke-width:0.264583" />
    <path
       fill="#ae4e32"
       d="m 108.29283,104.78857 c -0.84622,0 -1.7093,-0.41359 -2.56993,-1.23257 l 0.28953,-0.30431 c 0.85805,0.81639 1.70048,1.18812 2.50329,1.10537 1.10824,-0.11446 1.77538,-1.06301 1.78196,-1.07253 l 0.34568,0.23871 c -0.0315,0.0456 -0.78587,1.11755 -2.08445,1.25161 a 2.5824921,2.5824921 0 0 1 -0.26608,0.0137 z"
       id="path50-7"
       style="stroke-width:0.264583" />
    <path
       fill="#9e402b"
       d="m 108.51565,104.35706 c -0.0598,0.006 -0.12006,0.009 -0.1804,0.0101 v 0.42031 c 0.0746,-0.001 0.14918,-0.005 0.22345,-0.0126 1.29865,-0.13406 2.05295,-1.2061 2.08445,-1.25161 l -0.34568,-0.23871 c -0.006,0.01 -0.67365,0.95808 -1.78182,1.07253 z"
       id="path52-9"
       style="stroke-width:0.264583" />
    <path
       fill="#fe9a0f"
       d="m 111.13402,103.27018 c 0.3055,0.65152 -2.0213,1.88766 -2.83153,1.88766 -1.01066,0 -3.12122,-1.49375 -2.83154,-1.88767 0.54051,-0.73504 1.72064,-1.92105 2.6895,-1.92105 0.69801,0 2.76594,1.47835 2.97357,1.92106 z"
       id="path54-2"
       style="stroke-width:0.264583" />
    <path
       fill="#e2810c"
       d="m 111.13395,103.27018 c -0.19244,-0.4103 -1.98196,-1.70937 -2.7987,-1.89747 v 3.78366 c 0.83739,-0.0308 3.10035,-1.243 2.7987,-1.88619 z"
       id="path56-0"
       style="stroke-width:0.264583" />
    <path
       d="m 200.91566,100.22369 c 4.364,9.307 -28.874,26.965 -40.448,26.965 -14.437,0 -44.586,-21.338 -40.448,-26.965 7.721,-10.5 24.579,-27.442 38.419,-27.442 9.971,0 39.511,21.118 42.477,27.442 z"
       fill="#fe9a0f"
       transform="matrix(0.07000346,0,0,0.07000346,97.069055,96.254082)"
       opacity="0.7"
       filter="url(#d)"
       id="path58-2"
       style="filter:url(#d-6)" />
    <path
       fill="#ae4e32"
       d="m 108.29283,104.78857 c -0.84622,0 -1.7093,-0.41359 -2.56993,-1.23257 l 0.28953,-0.30431 c 0.85805,0.81639 1.70048,1.18812 2.50329,1.10537 1.10824,-0.11446 1.77538,-1.06301 1.78196,-1.07253 l 0.34568,0.23871 c -0.0315,0.0456 -0.78587,1.11755 -2.08445,1.25161 a 2.5824921,2.5824921 0 0 1 -0.26608,0.0137 z"
       id="path60-3"
       style="stroke-width:0.264583" />
    <path
       fill="#9e402b"
       d="m 108.51565,104.35706 c -0.0598,0.006 -0.12006,0.009 -0.1804,0.0101 v 0.42031 c 0.0746,-0.001 0.14918,-0.005 0.22345,-0.0126 1.29865,-0.13406 2.05295,-1.2061 2.08445,-1.25161 l -0.34568,-0.23871 c -0.006,0.01 -0.67365,0.95808 -1.78182,1.07253 z"
       id="path62-7"
       style="stroke-width:0.264583" />
    <path
       fill="#fe9b0e"
       d="m 114.70318,113.41028 c 0.41288,0.79756 1.02696,1.55081 1.81899,1.72519 0.58412,0.1286 1.02592,0.62563 1.09109,1.22017 0.009,0.0825 0.0213,0.16528 0.0369,0.24824 0.10087,0.53756 0.32916,1.01891 0.64768,1.41878 0.4782,0.60036 0.13349,1.49578 -0.62059,1.63866 l -5.95492,1.12854 c -1.29711,0.24585 -2.27283,-1.16046 -1.58847,-2.28942 l 3.28797,-5.15505 c 0.30773,-0.48261 1.01828,-0.44348 1.28135,0.0649 z"
       id="path64-5"
       style="stroke-width:0.264583" />
    <path
       d="m 251.90042,245.07338 c 5.898,11.393 14.67,22.153 25.984,24.644 8.344,1.837 14.655,8.937 15.586,17.43 0.129,1.179 0.304,2.361 0.527,3.546 1.441,7.679 4.702,14.555 9.252,20.267 6.831,8.576 1.907,21.367 -8.865,23.408 l -85.065,16.121 c -18.529,3.512 -32.467,-16.577 -22.691,-32.704 l 46.968,-73.639 c 4.396,-6.894 14.546,-6.335 18.304,0.927 z"
       fill="#fe9b0e"
       transform="matrix(0.07000346,0,0,0.07000346,97.069055,96.254082)"
       opacity="0.71"
       filter="url(#e)"
       id="path66-9"
       style="filter:url(#e-9)" />
    <path
       d="m 117.39311,114.35459 a 1.9076194,1.9076194 0 0 1 -1.90762,1.90762 1.9076194,1.9076194 0 0 1 -1.90762,-1.90762 1.9076194,1.9076194 0 0 1 1.90762,-1.90762 1.9076194,1.9076194 0 0 1 1.90762,1.90762 m -14.79822,-2.09033 c 0,0 2.03846,2.48515 3.49105,3.04519 1.45259,0.56004 -0.69087,2.18602 -2.65099,0.95297 -1.96013,-1.23299 -0.84006,-3.99816 -0.84006,-3.99816 z"
       id="path68-2"
       style="fill:#ffffff;stroke-width:0.264583" />
    <path
       d="m 102.51745,111.98955 c 0,0 2.1159,2.75987 3.56849,3.3199 1.45259,0.56004 -0.69087,2.18602 -2.65099,0.95297 -1.5303,-0.96261 -1.82641,-4.04656 -1.60058,-4.83202 0.0634,-0.22061 0.68308,0.55915 0.68308,0.55915 z"
       id="path92-2"
       style="fill:#ffffff;stroke-width:0.264583" />
    <path
       fill="#fe9b0e"
       d="m 101.49933,113.43684 c -0.41289,0.79756 -1.02697,1.5508 -1.818997,1.72518 -0.584117,0.1286 -1.025913,0.62563 -1.091088,1.22018 a 3.2917236,3.2917236 0 0 1 -0.03682,0.24823 c -0.100878,0.53756 -0.32916,1.01892 -0.647682,1.41878 -0.478197,0.60036 -0.133498,1.49579 0.620591,1.63867 l 5.954916,1.12853 c 1.29711,0.24586 2.27283,-1.16046 1.58847,-2.28942 l -3.28796,-5.15505 c -0.30781,-0.48261 -1.01836,-0.44348 -1.28143,0.0649 z"
       id="path94-8"
       style="stroke-width:0.264583" />
    <path
       filter="url(#i)"
       fill="#ffffff"
       d="m 116.47432,235.81079 c -0.43183,1.91932 -1.91342,3.42849 -3.82462,3.89527 1.88954,0.46974 3.35587,1.95897 3.79631,3.8554 0.43207,-1.91908 1.91391,-3.428 3.82486,-3.89454 -1.88953,-0.46949 -3.35636,-1.95921 -3.79655,-3.85613 z"
       class="spark3"
       transform="matrix(0.07000346,0,0,0.07000346,97.069055,96.254082)"
       id="path102-9"
       style="filter:url(#i-2)" />
    <path
       d="m 63.28565,245.45269 c -5.898,11.393 -14.67,22.153 -25.984,24.644 -8.344,1.837 -14.655,8.937 -15.586,17.43 -0.129,1.179 -0.304,2.361 -0.526,3.546 -1.441,7.679 -4.702,14.555 -9.252,20.267 -6.831,8.576 -1.907,21.367 8.865,23.408 l 85.06501,16.121 c 18.529,3.512 32.467,-16.577 22.691,-32.704 l -46.968,-73.639 c -4.397,-6.894 -14.547,-6.335 -18.305,0.927 z"
       fill="#fe9b0e"
       transform="matrix(0.07000346,0,0,0.07000346,97.069055,96.254082)"
       opacity="0.7"
       filter="url(#j)"
       id="path104-7"
       style="filter:url(#j-0)" />
  </g>
  <g
     id="g1863"
     transform="translate(-4.3862524,2.9411994)">
    <path
       d="M 72.55999,38.97689 C 67.04396,34.02627 64.72647,26.53274 65.85571,19.20749 66.01473,18.17667 66.07373,17.11278 66.02293,16.02613 65.64034,7.85263 58.90432,1.24386 50.72499,1.0068 41.79345,0.74803 34.47189,7.9111 34.47189,16.78443 c 0,1.33033 0.16458,2.62229 0.4744,3.8563 1.8005,7.16995 0.02381,14.75238 -5.04534,20.1332 -5.0882,5.40121 -8.30685,12.6545 -8.30685,20.64386 0,18.40018 7.16068,27.2677 17.40614,30.06142 2.35717,-1.05807 5.77559,-1.72402 9.5803,-1.72402 3.61897,0 6.8871,0.60272 9.22628,1.57215 12.6418,-2.53418 18.63884,-8.6913 22.82296,-22.9071 3.34196,-11.35432 -1.83912,-23.85165 -8.06979,-29.44335 z"
       id="path34" />
    <path
       filter="url(#a)"
       fill="#ffffff"
       opacity="0.7"
       d="m 84.22465,242.44769 c 0,-45.34 36.32501,-150.337 81.13401,-150.337 44.809,0 81.134,105.528 81.134,150.337 0,44.809 -36.325,81.134 -81.134,81.134 -44.809,0 -81.134,-36.325 -81.134,-81.134 z"
       transform="matrix(0.26458,0,0,0.26458,5.9999104,1)"
       id="path36" />
    <path
       fill="#ffffff"
       d="m 28.28435,65.14762 c 0,-11.99621 9.611,-39.77667 21.4667,-39.77667 11.85572,0 21.46671,27.92095 21.46671,39.77667 0,11.85571 -9.61099,21.4667 -21.4667,21.4667 -11.85572,0 -21.46671,-9.61099 -21.46671,-21.4667 z m 17.0852,-45.83774 a 3.53563,4.79954 0 0 1 -3.53562,4.79954 3.53563,4.79954 0 0 1 -3.53563,-4.79954 3.53563,4.79954 0 0 1 3.53563,-4.79954 3.53563,4.79954 0 0 1 3.53562,4.79954"
       id="path38" />
    <path
       filter="url(#b)"
       fill="#ffffff"
       opacity="0.7"
       d="m 148.79866,69.20269 a 13.363,18.14 0 0 1 -13.363,18.14 13.363,18.14 0 0 1 -13.363,-18.14 13.363,18.14 0 0 1 13.363,-18.14 13.363,18.14 0 0 1 13.363,18.14"
       transform="matrix(0.26458,0,0,0.26458,5.9999104,1)"
       id="path40" />
    <path
       fill="#000100"
       d="m 43.58732,20.39996 a 1.7534,3.11124 0 0 1 -1.7534,3.11123 1.7534,3.11124 0 0 1 -1.75338,-3.11123 1.7534,3.11124 0 0 1 1.75339,-3.11124 1.7534,3.11124 0 0 1 1.7534,3.11124"
       id="path42" />
    <path
       fill="#ffffff"
       d="m 57.95843,19.30988 a 3.53563,4.79954 0 0 1 -3.53563,4.79954 3.53563,4.79954 0 0 1 -3.53563,-4.79954 3.53563,4.79954 0 0 1 3.53563,-4.79954 3.53563,4.79954 0 0 1 3.53563,4.79954"
       id="path44" />
    <path
       filter="url(#c)"
       fill="#ffffff"
       opacity="0.7"
       d="m 196.37865,69.20269 a 13.363,18.14 0 0 1 -13.363,18.14 13.363,18.14 0 0 1 -13.363,-18.14 13.363,18.14 0 0 1 13.363,-18.14 13.363,18.14 0 0 1 13.363,18.14"
       transform="matrix(0.26458,0,0,0.26458,5.9999104,1)"
       id="path46" />
    <path
       fill="#000100"
       d="m 56.17619,20.39996 a 1.7534,3.11124 0 0 1 -1.75339,3.11123 1.7534,3.11124 0 0 1 -1.7534,-3.11123 1.7534,3.11124 0 0 1 1.7534,-3.11124 1.7534,3.11124 0 0 1 1.7534,3.11124"
       id="path48" />
    <path
       fill="#ae4e32"
       d="m 48.42047,33.25633 c -3.19829,0 -6.46034,-1.56316 -9.71312,-4.65852 l 1.09431,-1.15014 c 3.243,3.08557 6.427,4.4905 9.46124,4.17777 4.18862,-0.4326 6.7101,-4.0177 6.73497,-4.05368 l 1.30651,0.90223 c -0.11906,0.17224 -2.97021,4.2238 -7.87823,4.73048 a 9.7606,9.7606 0 0 1 -1.00568,0.05186 z"
       id="path50" />
    <path
       fill="#9e402b"
       d="m 49.26263,31.62544 c -0.22621,0.02328 -0.45376,0.03387 -0.68183,0.0381 v 1.58856 c 0.28205,-0.0048 0.56383,-0.01852 0.84455,-0.04762 4.90829,-0.50668 7.75917,-4.5585 7.87824,-4.73049 l -1.30652,-0.90223 c -0.0243,0.03598 -2.54608,3.62109 -6.73444,4.05368 z"
       id="path52" />
    <path
       fill="#fe9a0f"
       d="m 59.15884,27.51752 c 1.15465,2.46247 -7.63957,7.13449 -10.70186,7.13449 -3.8198,0 -11.79671,-5.64568 -10.70187,-7.1345 2.04285,-2.77812 6.5032,-7.26069 10.16503,-7.26069 2.63816,0 10.45395,5.58747 11.2387,7.2607 z"
       id="path54" />
    <path
       fill="#e2810c"
       d="M 59.15858,27.51752 C 58.43124,25.9668 51.6677,21.05692 48.5808,20.34599 v 14.30046 c 3.16495,-0.11642 11.71787,-4.69794 10.57778,-7.12893 z"
       id="path56" />
    <path
       d="m 200.91566,100.22369 c 4.364,9.307 -28.874,26.965 -40.448,26.965 -14.437,0 -44.586,-21.338 -40.448,-26.965 7.721,-10.5 24.579,-27.442 38.419,-27.442 9.971,0 39.511,21.118 42.477,27.442 z"
       fill="#fe9a0f"
       transform="matrix(0.26458,0,0,0.26458,5.9999104,1)"
       opacity="0.7"
       filter="url(#d)"
       id="path58" />
    <path
       fill="#ae4e32"
       d="m 48.42047,33.25633 c -3.19829,0 -6.46034,-1.56316 -9.71312,-4.65852 l 1.09431,-1.15014 c 3.243,3.08557 6.427,4.4905 9.46124,4.17777 4.18862,-0.4326 6.7101,-4.0177 6.73497,-4.05368 l 1.30651,0.90223 c -0.11906,0.17224 -2.97021,4.2238 -7.87823,4.73048 a 9.7606,9.7606 0 0 1 -1.00568,0.05186 z"
       id="path60" />
    <path
       fill="#9e402b"
       d="m 49.26263,31.62544 c -0.22621,0.02328 -0.45376,0.03387 -0.68183,0.0381 v 1.58856 c 0.28205,-0.0048 0.56383,-0.01852 0.84455,-0.04762 4.90829,-0.50668 7.75917,-4.5585 7.87824,-4.73049 l -1.30652,-0.90223 c -0.0243,0.03598 -2.54608,3.62109 -6.73444,4.05368 z"
       id="path62" />
    <path
       fill="#fe9b0e"
       d="m 72.64856,65.84233 c 1.56051,3.0144 3.88144,5.86131 6.87494,6.5204 2.20768,0.48603 3.87747,2.36457 4.12379,4.61168 0.0341,0.31194 0.0804,0.62468 0.13944,0.93821 0.38126,2.03173 1.24407,3.85101 2.44792,5.36231 1.80737,2.26907 0.50456,5.65335 -2.34553,6.19337 l -22.50678,4.26534 c -4.90247,0.92922 -8.59023,-4.38599 -6.00366,-8.65293 L 67.80563,65.59706 c 1.1631,-1.82403 3.84863,-1.67613 4.84293,0.24527 z"
       id="path64" />
    <path
       d="m 251.90042,245.07338 c 5.898,11.393 14.67,22.153 25.984,24.644 8.344,1.837 14.655,8.937 15.586,17.43 0.129,1.179 0.304,2.361 0.527,3.546 1.441,7.679 4.702,14.555 9.252,20.267 6.831,8.576 1.907,21.367 -8.865,23.408 l -85.065,16.121 c -18.529,3.512 -32.467,-16.577 -22.691,-32.704 l 46.968,-73.639 c 4.396,-6.894 14.546,-6.335 18.304,0.927 z"
       fill="#fe9b0e"
       transform="matrix(0.26458,0,0,0.26458,5.9999104,1)"
       opacity="0.71"
       filter="url(#e)"
       id="path66" />
    <path
       d="m 82.81525,69.41138 a 7.2099,7.2099 0 0 1 -7.2099,7.2099 7.2099,7.2099 0 0 1 -7.2099,-7.2099 7.2099,7.2099 0 0 1 7.2099,-7.2099 7.2099,7.2099 0 0 1 7.2099,7.2099 M 26.88497,61.51092 c 0,0 7.7044,9.3927 13.1945,11.50937 5.49011,2.11667 -2.61117,8.26214 -10.0195,3.60177 -7.40834,-4.6601 -3.175,-15.11114 -3.175,-15.11114 z"
       id="path68" />
    <g
       filter="url(#f)"
       transform="matrix(0.2776,0.27356,-0.26404,0.26795,38.72713,51.84483)"
       id="g80">
      <path
         fill="#9b1010"
         d="M 42,14 40,40 14,42 Z"
         id="path70" />
      <path
         fill="#b71c1c"
         d="M 28,28 40,40 42,14 Z"
         id="path72" />
      <path
         fill="#c62828"
         d="M 15.75216,15.75245 A 22.621004,11.664002 -45.001 1 0 32.24784,32.24755 22.621004,11.664002 -45.001 1 0 15.75216,15.75245 Z"
         id="path74" />
      <path
         fill="#e53935"
         d="m 10,17 7,-7 8,-4 6,4 -3,9 -9,8 -9,3 -4,-6 z"
         id="path76" />
      <path
         fill="#ff5252"
         d="M 31,10 25,6 h 11 z m 11,5 -11,-5 -3,9 z M 19,27 32.235,32.235 28,19 Z m -9,3 4,12 5,-15 z M 6,24 v 11 l 4,-5 z"
         id="path78" />
    </g>
    <path
       d="m 46.69015,67.08575 -7.4203,6.41951 -7.74594,-6.57674 z"
       fill="#9b1010"
       id="path82" />
    <path
       d="m 39.10703,67.00713 0.16281,6.49813 7.4203,-6.41951 z"
       fill="#b71c1c"
       id="path84" />
    <path
       d="m 38.94077,60.37487 a 8.6664178,4.4638092 1.32643 1 0 0.22397,8.93244 8.6664178,4.4638092 1.32643 1 0 -0.22397,-8.93244 z"
       fill="#c62828"
       id="path86" />
    <path
       d="m 37.01451,59.13557 3.79156,0.03931 3.27705,1.11672 0.6095,2.71317 -3.20922,1.59084 -4.61082,-0.31849 -3.29061,-1.65822 0.47381,-2.70194 z"
       fill="#e53935"
       id="path88" />
    <path
       d="m 44.69261,63.00476 -0.6095,-2.71317 3.05371,3.0092 z m 1.7335,4.34893 -1.7335,-4.34893 -3.2092,1.59084 z m -9.55353,-3.07657 2.2919,5.0233 2.31892,-4.70482 z m -3.29061,-1.65822 -2.05806,4.30962 5.34867,-2.6514 z m 0.47381,-2.70194 -2.90446,2.94742 2.43065,-0.24548 z"
       fill="#ff5252"
       id="path90" />
    <path
       d="m 26.59227,60.47263 c 0,0 7.9971,10.431 13.4872,12.54766 5.49011,2.11667 -2.61117,8.26214 -10.0195,3.60177 -5.7838,-3.63822 -6.90294,-15.29408 -6.04942,-18.26274 0.23973,-0.83382 2.58172,2.1133 2.58172,2.1133 z"
       id="path92" />
    <path
       fill="#fe9b0e"
       d="m 22.74424,65.9427 c -1.56051,3.01439 -3.88144,5.8613 -6.87493,6.52038 -2.20769,0.48604 -3.87747,2.36458 -4.1238,4.6117 a 12.44116,12.44116 0 0 1 -0.13917,0.9382 c -0.38127,2.03173 -1.24407,3.85102 -2.4479296,5.36232 -1.80736,2.26907 -0.50456,5.65335 2.3455396,6.19337 L 34.01073,93.834 c 4.90246,0.92922 8.59023,-4.38599 6.00366,-8.65293 L 27.58744,65.69742 c -1.16337,-1.82403 -3.8489,-1.67613 -4.8432,0.24527 z"
       id="path94" />
    <path
       fill="#ffffff"
       d="m 41.30406,63.4186 c -0.11425,0.50783 -0.50626,0.90713 -1.01193,1.03063 0.49994,0.12428 0.88791,0.51831 1.00444,1.02007 0.11432,-0.50775 0.5064,-0.90699 1.012,-1.03043 -0.49994,-0.12422 -0.88804,-0.51837 -1.0045,-1.02026 z m -2.01129,-1.62558 c -0.11425,0.50782 -0.50625,0.90713 -1.01193,1.03063 0.49995,0.12428 0.88791,0.5183 1.00444,1.02007 0.11432,-0.50775 0.5064,-0.90699 1.012,-1.03043 -0.49994,-0.12422 -0.88804,-0.51837 -1.0045,-1.02027 z m -2.4757,1.59859 c -0.11425,0.50782 -0.50626,0.90712 -1.01193,1.03062 0.49994,0.12428 0.88791,0.5183 1.00444,1.02007 0.11432,-0.50775 0.5064,-0.90699 1.012,-1.03043 -0.49994,-0.12422 -0.88804,-0.51837 -1.0045,-1.02026 z"
       class="spark3"
       id="path96" />
    <path
       filter="url(#g)"
       fill="#ffffff"
       class="spark3"
       d="m 133.43302,235.91284 c -0.43183,1.91932 -1.91342,3.42849 -3.82462,3.89527 1.88954,0.46974 3.35587,1.95897 3.79631,3.8554 0.43207,-1.91908 1.91391,-3.428 3.82486,-3.89454 -1.88953,-0.46949 -3.35636,-1.95921 -3.79655,-3.85613 z"
       transform="matrix(0.26458,0,0,0.26458,5.9999104,1)"
       id="path98" />
    <path
       filter="url(#h)"
       fill="#ffffff"
       d="m 125.8313,229.76891 c -0.43183,1.91932 -1.91342,3.42849 -3.82462,3.89527 1.88954,0.46974 3.35587,1.95897 3.79631,3.8554 0.43207,-1.91908 1.91391,-3.428 3.82486,-3.89454 -1.88953,-0.46949 -3.35636,-1.95921 -3.79655,-3.85613 z"
       class="spark3"
       transform="matrix(0.26458,0,0,0.26458,5.9999104,1)"
       id="path100" />
    <path
       filter="url(#i)"
       fill="#ffffff"
       d="m 116.47432,235.81079 c -0.43183,1.91932 -1.91342,3.42849 -3.82462,3.89527 1.88954,0.46974 3.35587,1.95897 3.79631,3.8554 0.43207,-1.91908 1.91391,-3.428 3.82486,-3.89454 -1.88953,-0.46949 -3.35636,-1.95921 -3.79655,-3.85613 z"
       class="spark3"
       transform="matrix(0.26458,0,0,0.26458,5.9999104,1)"
       id="path102" />
    <path
       d="m 63.28565,245.45269 c -5.898,11.393 -14.67,22.153 -25.984,24.644 -8.344,1.837 -14.655,8.937 -15.586,17.43 -0.129,1.179 -0.304,2.361 -0.526,3.546 -1.441,7.679 -4.702,14.555 -9.252,20.267 -6.831,8.576 -1.907,21.367 8.865,23.408 l 85.06501,16.121 c 18.529,3.512 32.467,-16.577 22.691,-32.704 l -46.968,-73.639 c -4.397,-6.894 -14.547,-6.335 -18.305,0.927 z"
       fill="#fe9b0e"
       transform="matrix(0.26458,0,0,0.26458,5.9999104,1)"
       opacity="0.7"
       filter="url(#j)"
       id="path104" />
  </g>
</svg>
